<svg width="80" height="80" viewBox="0 0 80 80" fill="none" xmlns="http://www.w3.org/2000/svg">
<path fill-rule="evenodd" clip-rule="evenodd" d="M40 0C62.0769 0 80 17.9231 80 40C80 62.0769 62.0769 80 40 80C17.9231 80 0 62.0769 0 40C0 17.9231 17.924 0 40 0Z" fill="#93FF27"/>
<mask id="mask0_567_37938" style="mask-type:luminance" maskUnits="userSpaceOnUse" x="0" y="0" width="80" height="80">
<path d="M40 0C62.0769 0 80 17.9231 80 40C80 62.0769 62.0769 80 40 80C17.9231 80 0 62.0769 0 40C0 17.9231 17.924 0 40 0Z" fill="white"/>
</mask>
<g mask="url(#mask0_567_37938)">
<path fill-rule="evenodd" clip-rule="evenodd" d="M148.937 -5.79688C228.995 -5.79688 293.991 59.199 293.991 139.256C293.991 219.314 228.995 284.309 148.937 284.309C68.8802 284.309 3.88525 219.313 3.88525 139.256C3.88525 59.1999 68.8811 -5.79688 148.937 -5.79688Z" fill="#93FF27"/>
<path fill-rule="evenodd" clip-rule="evenodd" d="M96.3128 23.3324L92.9731 19.7319L17.9336 89.3267L21.2724 92.9281L96.3128 23.3324Z" fill="#CDFF9A"/>
</g>
<mask id="mask1_567_37938" style="mask-type:luminance" maskUnits="userSpaceOnUse" x="0" y="0" width="80" height="80">
<path d="M40 0C62.0769 0 80 17.9231 80 40C80 62.0769 62.0769 80 40 80C17.9231 80 0 62.0769 0 40C0 17.9231 17.924 0 40 0Z" fill="white"/>
</mask>
<g mask="url(#mask1_567_37938)">
<path fill-rule="evenodd" clip-rule="evenodd" d="M86.0939 14.0434L79.2919 6.70898L4.25146 76.3047L11.0544 83.6391L86.0939 14.0434Z" fill="#CDFF9A"/>
</g>
<mask id="mask2_567_37938" style="mask-type:luminance" maskUnits="userSpaceOnUse" x="4" y="6" width="67" height="71">
<mask id="mask3_567_37938" style="mask-type:luminance" maskUnits="userSpaceOnUse" x="4" y="6" width="73" height="74">
<path d="M76.0722 13.646L70.103 6.70703L4.25049 72.5501L10.2205 79.4891L76.0722 13.646Z" fill="white"/>
</mask>
<g mask="url(#mask3_567_37938)">
<path d="M35.6239 0.355957C54.9977 0.355957 70.7263 17.3127 70.7263 38.1992C70.7263 59.0856 54.9977 76.0424 35.6239 76.0424C16.2501 76.0424 0.521484 59.0856 0.521484 38.1992C0.521484 17.3127 16.2509 0.355957 35.6239 0.355957Z" fill="white"/>
</g>
</mask>
<g mask="url(#mask2_567_37938)">
<path fill-rule="evenodd" clip-rule="evenodd" d="M131.228 -5.12354C201.483 -5.12354 258.521 56.3678 258.521 132.108C258.521 207.849 201.483 269.34 131.228 269.34C60.9726 269.34 3.93555 207.848 3.93555 132.108C3.93555 56.3687 60.9734 -5.12354 131.228 -5.12354Z" fill="#CDFF9A"/>
</g>
<mask id="mask4_567_37938" style="mask-type:luminance" maskUnits="userSpaceOnUse" x="0" y="0" width="80" height="80">
<path d="M40 0C62.0769 0 80 17.9231 80 40C80 62.0769 62.0769 80 40 80C17.9231 80 0 62.0769 0 40C0 17.9231 17.924 0 40 0Z" fill="white"/>
</mask>
<g mask="url(#mask4_567_37938)">
<path fill-rule="evenodd" clip-rule="evenodd" d="M76.2629 4.96593L71.6576 0L-3.38281 69.5957L1.22244 74.5607L76.2629 4.96593Z" fill="#CDFF9A"/>
</g>
<path fill-rule="evenodd" clip-rule="evenodd" d="M40.0005 8C22.3391 8 8 22.3391 8 40.0005C8 57.662 22.3391 72.0011 40.0005 72.0011C57.662 72.0011 72.0011 57.662 72.0011 40.0005C72.0011 22.3391 57.662 8 40.0005 8Z" fill="#009E5C"/>
<mask id="mask5_567_37938" style="mask-type:luminance" maskUnits="userSpaceOnUse" x="8" y="7" width="65" height="65">
<path d="M40.0005 7.99854C22.3391 7.99854 8 22.3376 8 39.9991C8 57.6606 22.3391 71.9996 40.0005 71.9996C57.662 71.9996 72.0011 57.6606 72.0011 39.9991C72.0011 22.3376 57.662 7.99854 40.0005 7.99854Z" fill="white"/>
</mask>
<g mask="url(#mask5_567_37938)">
<path fill-rule="evenodd" clip-rule="evenodd" d="M148.937 -5.79736C228.995 -5.79736 293.991 59.1985 293.991 139.256C293.991 219.313 228.995 284.309 148.937 284.309C68.8802 284.309 3.88525 219.312 3.88525 139.256C3.88525 59.1995 68.8811 -5.79736 148.937 -5.79736Z" fill="#009E5C"/>
<path fill-rule="evenodd" clip-rule="evenodd" d="M39.0545 9.32959C21.6138 9.32959 7.45459 23.4888 7.45459 40.9295C7.45459 58.3702 21.6138 72.5294 39.0545 72.5294C56.4952 72.5294 70.6544 58.3702 70.6544 40.9295C70.6544 23.4888 56.4952 9.32959 39.0545 9.32959Z" fill="#1ADD7B"/>
</g>
<mask id="mask6_567_37938" style="mask-type:luminance" maskUnits="userSpaceOnUse" x="7" y="9" width="64" height="63">
<mask id="mask7_567_37938" style="mask-type:luminance" maskUnits="userSpaceOnUse" x="7" y="9" width="64" height="64">
<path d="M39.0413 9.32422C21.6006 9.32422 7.44141 23.4834 7.44141 40.9241C7.44141 58.3648 21.6006 72.524 39.0413 72.524C56.482 72.524 70.6412 58.3648 70.6412 40.9241C70.6412 23.4834 56.482 9.32422 39.0413 9.32422Z" fill="white"/>
</mask>
<g mask="url(#mask7_567_37938)">
<path d="M39.9913 7.99658C22.3298 7.99658 7.99072 22.3356 7.99072 39.9971C7.99072 57.6586 22.3298 71.9977 39.9913 71.9977C57.6528 71.9977 71.9918 57.6586 71.9918 39.9971C71.9918 22.3356 57.6528 7.99658 39.9913 7.99658Z" fill="white"/>
</g>
</mask>
<g mask="url(#mask6_567_37938)">
<path fill-rule="evenodd" clip-rule="evenodd" d="M148.936 -5.79541C228.994 -5.79541 293.99 59.2005 293.99 139.258C293.99 219.315 228.994 284.311 148.936 284.311C68.8793 284.311 3.88428 219.314 3.88428 139.258C3.88428 59.2014 68.8802 -5.79541 148.936 -5.79541Z" fill="#05CD79" fill-opacity="0.5"/>
</g>
<path d="M27.1309 39.4116L37.2818 48.8291L56.6103 30.1154" stroke="white" stroke-width="4.49127"/>
</svg>
